<?xml version="1.0" encoding="utf-8"?>
<!-- Generator: Adobe Illustrator 25.2.0, SVG Export Plug-In . SVG Version: 6.00 Build 0)  -->
<svg version="1.1"
	 id="svg2" sodipodi:docname="Airdrop - Copie.svg" xmlns:cc="http://creativecommons.org/ns#" xmlns:dc="http://purl.org/dc/elements/1.1/" xmlns:inkscape="http://www.inkscape.org/namespaces/inkscape" xmlns:rdf="http://www.w3.org/1999/02/22-rdf-syntax-ns#" xmlns:sodipodi="http://sodipodi.sourceforge.net/DTD/sodipodi-0.dtd" xmlns:svg="http://www.w3.org/2000/svg"
	 xmlns="http://www.w3.org/2000/svg" xmlns:xlink="http://www.w3.org/1999/xlink" x="0px" y="0px" viewBox="0 0 602 602"
	 style="enable-background:new 0 0 602 602;" xml:space="preserve">
<style type="text/css">
	.st0{fill:url(#SVGID_1_);}
	.st1{fill:#FFFFFF;}
</style>
<sodipodi:namedview  bordercolor="#666666" borderopacity="1.0" id="base" inkscape:current-layer="layer1" inkscape:cx="-298.61733" inkscape:cy="36.893627" inkscape:document-units="px" inkscape:pageopacity="0.0" inkscape:pageshadow="2" inkscape:window-height="706" inkscape:window-maximized="1" inkscape:window-width="1366" inkscape:window-x="-8" inkscape:window-y="-8" inkscape:zoom="0.37410882" pagecolor="#ffffff" showgrid="false">
	</sodipodi:namedview>
<g id="layer1" transform="translate(0,-450.36218)" inkscape:groupmode="layer" inkscape:label="Calque 1">
	<linearGradient id="SVGID_1_" gradientUnits="userSpaceOnUse" x1="300.7136" y1="1040.859" x2="301.2818" y2="466.5603">
		<stop  offset="0" style="stop-color:#70EFFF"/>
		<stop  offset="1" style="stop-color:#5770FF"/>
	</linearGradient>
	<circle class="st0" cx="301" cy="751.4" r="292"/>
	<g id="g3062" transform="matrix(6.6666666,0,0,6.6666666,-5.6668106,-5957.7191)">
		
			<path id="rect3027" inkscape:connector-curvature="0" sodipodi:nodetypes="sccccccccaaaccccsscsscccccccccccccccsscccccsscccccaaacc" class="st1" d="
			M20.1,987.4c-0.5,0-0.9,0.1-1.3,0.2l8.5,8.7l8.6,8.9l0.2,0.2l0.2,0.2l0.2,0.2l0.5,0.5l7.3,7.5c0.1,0.1,0.5,0.4,0.8,0.5
			c0.4,0.2,0.7,0.3,1.1,0.4c0.4,0,0.9-0.1,1.3-0.3c0.3-0.1,0.4-0.3,0.8-0.6l8.5-8.8l8.6-8.8l8.3-8.5c-0.5-0.3-1.1-0.4-1.8-0.4H20.1z
			 M17.5,988.4c-0.9,0.9-1.5,2.1-1.5,3.6v28.6c0,1.2,0.4,2.2,1,3.1l1.2-1.1l8.8-8.6l7.8-7.6l-0.2-0.2l-8.6-8.8L17.5,988.4
			L17.5,988.4z M74.7,988.7l-8.4,8.7l-8.6,8.8l-0.2,0.2l8.2,7.9l8.8,8.6l0.5,0.5c0.5-0.8,0.8-1.7,0.8-2.7V992
			C75.9,990.7,75.5,989.6,74.7,988.7z M36,1007.4l-7.8,7.6l-8.9,8.6l-1.1,1.1c0.6,0.4,1.3,0.6,2,0.6h51.7c0.9,0,1.7-0.3,2.3-0.9
			l-0.6-0.6l-8.9-8.6l-8.2-7.9l-7.3,7.6c-0.4,0.3-0.7,0.6-1.1,0.7c-0.6,0.3-1.3,0.5-2,0.5c-0.7,0-1.4-0.3-2-0.6
			c-0.3-0.2-0.5-0.3-0.8-0.6L36,1007.4z"/>
	</g>
</g>
</svg>
