<?xml version="1.0" encoding="utf-8"?>
<!-- Generator: Adobe Illustrator 25.2.0, SVG Export Plug-In . SVG Version: 6.00 Build 0)  -->
<svg version="1.1" id="Layer_1" xmlns="http://www.w3.org/2000/svg" xmlns:xlink="http://www.w3.org/1999/xlink" x="0px" y="0px"
	 viewBox="0 0 96 96" style="enable-background:new 0 0 96 96;" xml:space="preserve">
<style type="text/css">
	.st0{fill:url(#SVGID_1_);}
	.st1{fill:#FFFFFF;}
</style>
<linearGradient id="SVGID_1_" gradientUnits="userSpaceOnUse" x1="48" y1="98" x2="48" y2="2" gradientTransform="matrix(1 0 0 -1 0 98)">
	<stop  offset="0" style="stop-color:#990000"/>
	<stop  offset="1" style="stop-color:#D52027"/>
</linearGradient>
<circle class="st0" cx="48" cy="48" r="48"/>
<path class="st1" d="M65.1,69.8L54.5,20.2c-0.5,0-1-0.1-1.3-0.1L62,72.7C63.1,71.8,64.1,70.8,65.1,69.8z M73.2,50.6L60.9,21.3
	c-0.5-0.1-1-0.2-1.4-0.2l13,34.5C72.9,53.9,73.1,52.3,73.2,50.6z M55,77.5c0.8-0.4,1.6-0.8,2.4-1.3L51.3,20c-0.5,0-1,0-1.4,0
	l3.7,58.1C54,78,54.5,77.7,55,77.5z M70.6,61.3l-13-40.6c-0.5-0.1-1-0.1-1.3-0.2l12.3,44.6C69.3,63.9,70,62.6,70.6,61.3z M73.3,26.2
	c-3.1-1.9-6.7-3.3-10.4-4.4l10.4,21.7V26.2z M22.7,26.2v22.5C22.6,61,30.3,72.3,40.9,77.5c2.4,1.2,4.5,1.9,7,2.5V20
	C38.9,20,29.8,22.1,22.7,26.2z M38.3,46.9l1.4,4.3L36,48.5l-3.7,2.7l1.4-4.3L30,44.3h4.5L36,40l1.4,4.3H42L38.3,46.9z"/>
</svg>
